<?xml version="1.0" standalone="no"?>
<!DOCTYPE svg PUBLIC "-//W3C//DTD SVG 20010904//EN"
 "http://www.w3.org/TR/2001/REC-SVG-20010904/DTD/svg10.dtd">
<svg version="1.0" xmlns="http://www.w3.org/2000/svg"
 width="512.000000pt" height="512.000000pt" viewBox="0 0 512.000000 512.000000"
 preserveAspectRatio="xMidYMid meet">
<metadata>
Created by potrace 1.14, written by Peter Selinger 2001-2017
</metadata>
<g transform="translate(0.000000,512.000000) scale(0.100000,-0.100000)"
fill="#000000" stroke="none">
<path d="M3859 4886 c-2 -2 -52 -7 -110 -10 -58 -4 -117 -9 -129 -11 -13 -2
-48 -7 -79 -10 -31 -3 -111 -14 -179 -25 -674 -109 -1047 -317 -1070 -595 -10
-132 55 -213 190 -239 l38 -7 -49 49 c-76 76 -80 151 -14 249 63 94 231 211
403 283 41 17 84 35 95 40 75 32 313 99 452 125 43 8 87 17 98 19 11 2 45 7
76 10 31 4 65 8 76 10 24 5 152 16 253 22 86 5 414 4 510 -1 129 -8 152 -7
163 4 29 29 -27 58 -146 76 -45 7 -572 17 -578 11z"/>
<path d="M4634 4731 c-41 -19 -169 -141 -349 -336 -60 -65 -123 -133 -140
-150 -16 -18 -68 -74 -115 -125 -47 -51 -104 -113 -126 -137 -34 -36 -122
-131 -229 -249 -103 -113 -91 -106 -210 -118 -120 -13 -390 -53 -474 -71 -9
-2 -50 -11 -91 -20 -467 -99 -946 -277 -1283 -476 -519 -307 -979 -713 -1150
-1017 -141 -252 -127 -427 44 -525 129 -73 332 -55 603 54 552 223 1147 619
1770 1179 22 19 69 62 105 94 36 33 213 208 394 388 l327 329 113 4 c61 2 186
4 276 4 90 1 162 3 159 6 -8 8 -110 43 -144 49 -65 13 -154 20 -246 20 -54 1
-98 3 -98 4 0 2 42 47 94 100 52 54 130 133 172 177 42 44 170 177 285 295
474 491 443 454 419 500 -17 32 -62 40 -106 21z m-1154 -1195 c0 -24 -317
-352 -515 -532 -215 -196 -500 -437 -655 -554 -61 -46 -105 -80 -116 -89 -80
-66 -398 -283 -554 -378 -472 -287 -788 -413 -1029 -409 -73 1 -83 4 -106 27
-116 115 22 416 331 724 268 267 702 566 1109 765 114 55 343 153 365 155 3 0
37 13 75 27 247 95 769 226 1012 255 26 3 50 7 52 9 6 6 31 5 31 0z"/>
<path d="M4216 2689 c-303 -45 -755 -232 -1116 -462 -99 -63 -330 -233 -390
-287 -401 -361 -604 -701 -626 -1050 -13 -198 35 -331 164 -460 91 -90 195
-146 337 -180 264 -63 618 13 953 207 189 109 311 204 495 383 137 132 149
148 134 177 -12 21 -13 20 -63 -25 -87 -80 -117 -106 -179 -153 -193 -147
-365 -255 -550 -344 -130 -63 -334 -137 -410 -150 -22 -3 -62 -10 -90 -15 -27
-4 -102 -7 -165 -5 -95 2 -129 7 -195 30 -84 29 -107 41 -166 88 -62 49 -118
142 -134 224 -20 102 6 301 55 418 98 237 245 442 474 663 490 471 1230 840
1661 828 157 -5 236 -61 241 -173 4 -94 -59 -207 -210 -378 -121 -136 -411
-412 -497 -473 -24 -17 -25 -63 -1 -92 14 -18 22 -20 43 -12 82 32 352 279
502 459 280 339 343 600 171 720 -67 47 -132 65 -259 68 -66 1 -146 -1 -179
-6z"/>
</g>
</svg>
